<mxfile host="app.diagrams.net" modified="2023-11-22T18:55:00.022Z" agent="Mozilla/5.0 (Windows NT 10.0; Win64; x64) AppleWebKit/537.36 (KHTML, like Gecko) Chrome/119.0.0.0 Safari/537.36 Edg/119.0.0.0" etag="4LGFQgL-j70OwOLZIiQ7" version="22.1.3" type="device">
  <diagram name="Page-1" id="oit_1julGFqI6oK9F4lP">
    <mxGraphModel dx="1106" dy="623" grid="1" gridSize="10" guides="1" tooltips="1" connect="1" arrows="1" fold="1" page="1" pageScale="1" pageWidth="850" pageHeight="1100" math="0" shadow="0">
      <root>
        <mxCell id="0" />
        <mxCell id="1" parent="0" />
        <mxCell id="qeGmMF54fT7G0q_B0uXI-1" value="" style="rounded=0;whiteSpace=wrap;html=1;" parent="1" vertex="1">
          <mxGeometry x="90" y="580" width="120" height="60" as="geometry" />
        </mxCell>
        <mxCell id="qeGmMF54fT7G0q_B0uXI-2" value="" style="rounded=0;whiteSpace=wrap;html=1;" parent="1" vertex="1">
          <mxGeometry x="230" y="580" width="100" height="60" as="geometry" />
        </mxCell>
        <mxCell id="qeGmMF54fT7G0q_B0uXI-3" value="" style="rounded=0;whiteSpace=wrap;html=1;" parent="1" vertex="1">
          <mxGeometry x="340" y="580" width="110" height="60" as="geometry" />
        </mxCell>
        <mxCell id="qeGmMF54fT7G0q_B0uXI-4" value="" style="rounded=0;whiteSpace=wrap;html=1;" parent="1" vertex="1">
          <mxGeometry x="470" y="580" width="100" height="60" as="geometry" />
        </mxCell>
        <mxCell id="qeGmMF54fT7G0q_B0uXI-5" value="" style="rounded=0;whiteSpace=wrap;html=1;" parent="1" vertex="1">
          <mxGeometry x="590" y="580" width="110" height="60" as="geometry" />
        </mxCell>
        <mxCell id="qeGmMF54fT7G0q_B0uXI-7" value="" style="shape=flexArrow;endArrow=classic;html=1;rounded=0;" parent="1" edge="1">
          <mxGeometry width="50" height="50" relative="1" as="geometry">
            <mxPoint x="710" y="610" as="sourcePoint" />
            <mxPoint x="730" y="609.5" as="targetPoint" />
          </mxGeometry>
        </mxCell>
        <mxCell id="qeGmMF54fT7G0q_B0uXI-8" value="" style="shape=flexArrow;endArrow=classic;html=1;rounded=0;" parent="1" edge="1">
          <mxGeometry width="50" height="50" relative="1" as="geometry">
            <mxPoint x="80" y="609.5" as="sourcePoint" />
            <mxPoint x="60" y="609.5" as="targetPoint" />
          </mxGeometry>
        </mxCell>
        <mxCell id="qeGmMF54fT7G0q_B0uXI-10" value=". . ." style="text;strokeColor=none;fillColor=none;html=1;fontSize=24;fontStyle=1;verticalAlign=middle;align=center;" parent="1" vertex="1">
          <mxGeometry x="345" y="650" width="100" height="40" as="geometry" />
        </mxCell>
      </root>
    </mxGraphModel>
  </diagram>
</mxfile>
